ffmpeg started on 2016-12-08 at 02:52:59
Report written to "Output/x264/results/ffmpeg/Tsintelslower7000k.log"
Command line:
Tools/ffmpeg/ffmpeg -i Output/x264/encoded/sintelslower7000k.mkv -c:v rawvideo -pix_fmt yuv420p Output/x264/transcoded/sintelslower7000k.yuv
ffmpeg version N-82227-gdb23fde Copyright (c) 2000-2016 the FFmpeg developers
  built with gcc 5.4.0 (Ubuntu 5.4.0-6ubuntu1~16.04.2) 20160609
  configuration: --prefix=/home/jaroslav/ffmpeg_build --pkg-config-flags=--static --extra-cflags=-I/home/jaroslav/ffmpeg_build/include --extra-ldflags=-L/home/jaroslav/ffmpeg_build/lib --bindir=/home/jaroslav/bin --enable-gpl --enable-libass --enable-libfdk-aac --enable-libfreetype --enable-libmp3lame --enable-libopus --enable-libtheora --enable-libvorbis --enable-libvpx --enable-libx264 --enable-libx265 --enable-nvenc --enable-libmfx --enable-libxvid --enable-libgsm --enable-libopencore-amrnb --enable-version3 --enable-nonfree
  libavutil      55. 35.100 / 55. 35.100
  libavcodec     57. 66.101 / 57. 66.101
  libavformat    57. 57.100 / 57. 57.100
  libavdevice    57.  2.100 / 57.  2.100
  libavfilter     6. 66.100 /  6. 66.100
  libswscale      4.  3.100 /  4.  3.100
  libswresample   2.  4.100 /  2.  4.100
  libpostproc    54.  2.100 / 54.  2.100
Input #0, matroska,webm, from 'Output/x264/encoded/sintelslower7000k.mkv':
  Metadata:
    ENCODER         : Lavf57.57.100
  Duration: 00:00:20.83, start: 0.000000, bitrate: 5923 kb/s
    Stream #0:0: Video: h264 (High), yuv420p(progressive), 4096x1744 [SAR 1:1 DAR 256:109], 24 fps, 24 tbr, 1k tbn, 48 tbc (default)
    Metadata:
      ENCODER         : Lavc57.66.101 libx264
      DURATION        : 00:00:20.834000000
Output #0, rawvideo, to 'Output/x264/transcoded/sintelslower7000k.yuv':
  Metadata:
    encoder         : Lavf57.57.100
    Stream #0:0: Video: rawvideo (I420 / 0x30323449), yuv420p, 4096x1744 [SAR 1:1 DAR 256:109], q=2-31, 200 kb/s, 24 fps, 24 tbn, 24 tbc (default)
    Metadata:
      DURATION        : 00:00:20.834000000
      encoder         : Lavc57.66.101 rawvideo
Stream mapping:
  Stream #0:0 -> #0:0 (h264 (native) -> rawvideo (native))
Press [q] to stop, [?] for help
frame=   18 fps=0.0 q=-0.0 size=  188352kB time=00:00:00.75 bitrate=2057306.1kbits/s speed=1.48x    frame=   39 fps= 38 q=-0.0 size=  408096kB time=00:00:01.62 bitrate=2057306.1kbits/s speed=1.58x    frame=   58 fps= 37 q=-0.0 size=  606912kB time=00:00:02.41 bitrate=2057305.8kbits/s speed=1.56x    frame=   79 fps= 38 q=-0.0 size=  826656kB time=00:00:03.29 bitrate=2057305.9kbits/s speed=1.59x    frame=  100 fps= 39 q=-0.0 size= 1046400kB time=00:00:04.16 bitrate=2057305.9kbits/s speed=1.61x    frame=  121 fps= 39 q=-0.0 size= 1266144kB time=00:00:05.04 bitrate=2057306.0kbits/s speed=1.62x    frame=  142 fps= 39 q=-0.0 size= 1485888kB time=00:00:05.91 bitrate=2057306.0kbits/s speed=1.63x    frame=  163 fps= 39 q=-0.0 size= 1705632kB time=00:00:06.79 bitrate=2057306.0kbits/s speed=1.64x    frame=  184 fps= 39 q=-0.0 size= 1925376kB time=00:00:07.66 bitrate=2057306.0kbits/s speed=1.64x    frame=  205 fps= 39 q=-0.0 size= 2145120kB time=00:00:08.54 bitrate=2057306.0kbits/s speed=1.64x    frame=  225 fps= 39 q=-0.0 size= 2354400kB time=00:00:09.37 bitrate=2057306.1kbits/s speed=1.64x    frame=  245 fps= 39 q=-0.0 size= 2563680kB time=00:00:10.20 bitrate=2057306.2kbits/s speed=1.64x    frame=  263 fps= 39 q=-0.0 size= 2752032kB time=00:00:10.95 bitrate=2057306.2kbits/s speed=1.63x    frame=  280 fps= 39 q=-0.0 size= 2929920kB time=00:00:11.66 bitrate=2057306.1kbits/s speed=1.61x    frame=  296 fps= 38 q=-0.0 size= 3097344kB time=00:00:12.33 bitrate=2057306.2kbits/s speed=1.59x    frame=  311 fps= 38 q=-0.0 size= 3254304kB time=00:00:12.95 bitrate=2057306.2kbits/s speed=1.57x    frame=  327 fps= 37 q=-0.0 size= 3421728kB time=00:00:13.62 bitrate=2057306.1kbits/s speed=1.55x    frame=  343 fps= 37 q=-0.0 size= 3589152kB time=00:00:14.29 bitrate=2057306.1kbits/s speed=1.53x    frame=  360 fps= 36 q=-0.0 size= 3767040kB time=00:00:15.00 bitrate=2057306.1kbits/s speed=1.52x    frame=  376 fps= 36 q=-0.0 size= 3934464kB time=00:00:15.66 bitrate=2057306.1kbits/s speed=1.51x    frame=  388 fps= 36 q=-0.0 size= 4060032kB time=00:00:16.16 bitrate=2057306.1kbits/s speed=1.49x    frame=  405 fps= 36 q=-0.0 size= 4237920kB time=00:00:16.87 bitrate=2057306.1kbits/s speed=1.48x    frame=  423 fps= 36 q=-0.0 size= 4426272kB time=00:00:17.62 bitrate=2057306.1kbits/s speed=1.48x    frame=  443 fps= 36 q=-0.0 size= 4635552kB time=00:00:18.45 bitrate=2057306.1kbits/s speed=1.49x    frame=  463 fps= 36 q=-0.0 size= 4844832kB time=00:00:19.29 bitrate=2057306.1kbits/s speed=1.49x    frame=  483 fps= 36 q=-0.0 size= 5054112kB time=00:00:20.12 bitrate=2057306.1kbits/s speed= 1.5x    frame=  500 fps= 36 q=-0.0 Lsize= 5232000kB time=00:00:20.83 bitrate=2057306.1kbits/s speed= 1.5x    
video:5232000kB audio:0kB subtitle:0kB other streams:0kB global headers:0kB muxing overhead: 0.000000%
